# xmcd
#
# Track frame offsets:
#	150
#	29768
#	47168
#	72370
#	94435
#	115940
#	137180
#	161783
#	187675
#	213900
#
# Disc length: 3150 seconds
#
# Revision: 2
# Processed by: cddbd v1.5.2PL0 Copyright (c) Steve Scherf et al.
# Submitted via: EZCDAudioConverter 8.0.2.1
#
DISCID=940c4c0a
DTITLE=Ngọc Sơn - Từ Ngày Em Đi
DYEAR=1993
DGENRE=blues
TTITLE0=Đôi ngả đôi ta
TTITLE1=Nỗi buồn gác trọ
TTITLE2=Trọn kiếp đơn côi
TTITLE3=Em bỏ dòng sông
TTITLE4=Vầng trán suy tư
TTITLE5=Từ Ngày Em Đi
TTITLE6=Giã từ
TTITLE7=Bài tháng ca buồn
TTITLE8=Ai lên xứ hoa đào
TTITLE9=Còn thương rau đắng mọc sau hè
EXTD=
EXTT0=
EXTT1=
EXTT2=
EXTT3=
EXTT4=
EXTT5=
EXTT6=
EXTT7=
EXTT8=
EXTT9=
PLAYORDER=
